<svg width="42" height="42" viewBox="0 0 42 42" fill="none" xmlns="http://www.w3.org/2000/svg">
<g filter="url(#filter0_d_359_458)">
<path d="M17.1041 11.8333V14.5833H16.4166C16.1783 14.5833 15.9491 14.5925 15.7291 14.6292V11.8333C15.7291 11.4575 16.0408 11.1458 16.4166 11.1458C16.7925 11.1458 17.1041 11.4575 17.1041 11.8333Z" fill="#FACD66"/>
<path d="M25.5834 14.5833H16.4167C16.1784 14.5833 15.9492 14.5925 15.7292 14.6292C13.3642 14.9042 11.8334 16.655 11.8334 19.1667V25.5833C11.8334 28.3333 13.6667 30.1667 16.4167 30.1667H25.5834C28.3334 30.1667 30.1667 28.3333 30.1667 25.5833V19.1667C30.1667 16.4167 28.3334 14.5833 25.5834 14.5833ZM17.2234 24.6667C15.9584 24.6667 14.9317 23.64 14.9317 22.375C14.9317 21.11 15.9584 20.0833 17.2234 20.0833C18.4884 20.0833 19.515 21.11 19.515 22.375C19.515 23.64 18.4884 24.6667 17.2234 24.6667ZM23.1817 24.8958H22.7234C22.3475 24.8958 22.0359 24.5842 22.0359 24.2083C22.0359 23.8325 22.3475 23.5208 22.7234 23.5208H23.1817C23.5575 23.5208 23.8692 23.8325 23.8692 24.2083C23.8692 24.5842 23.5575 24.8958 23.1817 24.8958ZM26.39 24.8958H25.9317C25.5559 24.8958 25.2442 24.5842 25.2442 24.2083C25.2442 23.8325 25.5559 23.5208 25.9317 23.5208H26.39C26.7659 23.5208 27.0775 23.8325 27.0775 24.2083C27.0775 24.5842 26.7659 24.8958 26.39 24.8958ZM26.39 21.2292H22.7234C22.3475 21.2292 22.0359 20.9175 22.0359 20.5417C22.0359 20.1658 22.3475 19.8542 22.7234 19.8542H26.39C26.7659 19.8542 27.0775 20.1658 27.0775 20.5417C27.0775 20.9175 26.7659 21.2292 26.39 21.2292Z" fill="#FACD66"/>
</g>
<defs>
<filter id="filter0_d_359_458" x="-1" y="-1" width="44" height="44" filterUnits="userSpaceOnUse" color-interpolation-filters="sRGB">
<feFlood flood-opacity="0" result="BackgroundImageFix"/>
<feColorMatrix in="SourceAlpha" type="matrix" values="0 0 0 0 0 0 0 0 0 0 0 0 0 0 0 0 0 0 127 0" result="hardAlpha"/>
<feOffset/>
<feGaussianBlur stdDeviation="5.5"/>
<feComposite in2="hardAlpha" operator="out"/>
<feColorMatrix type="matrix" values="0 0 0 0 0.980392 0 0 0 0 0.803921 0 0 0 0 0.4 0 0 0 0.25 0"/>
<feBlend mode="normal" in2="BackgroundImageFix" result="effect1_dropShadow_359_458"/>
<feBlend mode="normal" in="SourceGraphic" in2="effect1_dropShadow_359_458" result="shape"/>
</filter>
</defs>
</svg>
