<svg width="16" height="16" viewBox="0 0 16 16" fill="none" xmlns="http://www.w3.org/2000/svg">
<path d="M14.5 11.9867C14.5 11.9733 14.4934 11.96 14.4934 11.9467C14.4867 11.8933 14.48 11.84 14.46 11.7933C14.4334 11.7333 14.4 11.6867 14.36 11.64C14.36 11.64 14.36 11.6333 14.3534 11.6333C14.3067 11.5867 14.2534 11.5533 14.1934 11.5267C14.1334 11.5 14.0667 11.4867 14 11.4867L10.8867 11.5C10.8867 11.5 10.8867 11.5 10.88 11.5C10.48 11.5 10.0934 11.3133 9.85336 10.9933L9.04003 9.94665C8.87336 9.72665 8.56003 9.68665 8.34003 9.85999C8.12003 10.0333 8.08003 10.34 8.25336 10.56L9.06669 11.6067C9.50003 12.1667 10.18 12.5 10.8867 12.5H10.8934L12.7934 12.4933L12.32 12.9667C12.1267 13.16 12.1267 13.48 12.32 13.6733C12.42 13.7733 12.5467 13.82 12.6734 13.82C12.8 13.82 12.9267 13.7733 13.0267 13.6733L14.36 12.34C14.4067 12.2933 14.44 12.24 14.4667 12.18C14.4867 12.1133 14.5 12.0467 14.5 11.9867Z" fill="white"/>
<path d="M5.61333 4.45999C5.18 3.85999 4.48667 3.50665 3.74667 3.50665C3.74 3.50665 3.74 3.50665 3.73333 3.50665L2 3.51332C1.72667 3.51332 1.5 3.73999 1.5 4.01332C1.5 4.28665 1.72667 4.51332 2 4.51332L3.74 4.50665H3.74667C4.16667 4.50665 4.56 4.70665 4.8 5.04665L5.52 6.04665C5.62 6.17999 5.77333 6.25332 5.92667 6.25332C6.02667 6.25332 6.13333 6.21999 6.22 6.15999C6.44667 5.99332 6.49333 5.67999 6.33333 5.45999L5.61333 4.45999Z" fill="white"/>
<path d="M14.4933 4.05335C14.4933 4.04002 14.5 4.02669 14.5 4.02002C14.5 3.95335 14.4867 3.88669 14.46 3.82669C14.4333 3.76669 14.4 3.71335 14.3533 3.66669L13.02 2.33335C12.8267 2.14002 12.5067 2.14002 12.3133 2.33335C12.12 2.52669 12.12 2.84669 12.3133 3.04002L12.7867 3.51335L10.9667 3.50669C10.96 3.50669 10.96 3.50669 10.9533 3.50669C10.1867 3.50669 9.46667 3.88669 9.04 4.53335L4.78 10.92C4.54 11.28 4.13333 11.5 3.7 11.5H3.69333L2 11.4867C1.72667 11.4867 1.5 11.7067 1.5 11.9867C1.5 12.26 1.72 12.4867 2 12.4867L3.7 12.4934C3.70667 12.4934 3.70667 12.4934 3.71333 12.4934C4.48667 12.4934 5.2 12.1134 5.62667 11.4667L9.88667 5.08002C10.1267 4.72002 10.5333 4.50002 10.9667 4.50002H10.9733L14 4.51335C14.0667 4.51335 14.1267 4.50002 14.1933 4.47335C14.2533 4.44669 14.3067 4.41335 14.3533 4.36669C14.3533 4.36669 14.3533 4.36002 14.36 4.36002C14.4 4.31335 14.44 4.26669 14.46 4.20669C14.48 4.16002 14.4867 4.10669 14.4933 4.05335Z" fill="white"/>
</svg>
