<svg width="17" height="17" viewBox="0 0 17 17" fill="none" xmlns="http://www.w3.org/2000/svg">
<path d="M8.25785 8.94595C8.63791 8.94595 8.94601 8.63785 8.94601 8.25779C8.94601 7.87774 8.63791 7.56964 8.25785 7.56964C7.8778 7.56964 7.5697 7.87774 7.5697 8.25779C7.5697 8.63785 7.8778 8.94595 8.25785 8.94595Z" stroke="#FACD66" stroke-width="1.3763" stroke-linecap="round" stroke-linejoin="round"/>
<path d="M8.25785 4.12887C8.63791 4.12887 8.94601 3.82077 8.94601 3.44072C8.94601 3.06066 8.63791 2.75256 8.25785 2.75256C7.8778 2.75256 7.5697 3.06066 7.5697 3.44072C7.5697 3.82077 7.8778 4.12887 8.25785 4.12887Z" stroke="#FACD66" stroke-width="1.3763" stroke-linecap="round" stroke-linejoin="round"/>
<path d="M8.25785 13.763C8.63791 13.763 8.94601 13.4549 8.94601 13.0749C8.94601 12.6948 8.63791 12.3867 8.25785 12.3867C7.8778 12.3867 7.5697 12.6948 7.5697 13.0749C7.5697 13.4549 7.8778 13.763 8.25785 13.763Z" stroke="#FACD66" stroke-width="1.3763" stroke-linecap="round" stroke-linejoin="round"/>
</svg>
