<svg width="42" height="42" viewBox="0 0 42 42" fill="none" xmlns="http://www.w3.org/2000/svg">
<g filter="url(#filter0_d_359_464)">
<path d="M20.3125 17.205H11.8334V24.8408C11.8334 24.8958 11.8334 24.9508 11.8425 24.9967H20.3125V17.205Z" fill="#FACD66"/>
<path d="M17.0492 15.83H20.3125V11.8333H17.0767V15.72C17.0767 15.7567 17.0584 15.7933 17.0492 15.83Z" fill="#FACD66"/>
<path d="M15.7017 15.72V11.98C13.6667 12.4017 12.3375 13.7583 11.9525 15.83H15.72C15.7108 15.7933 15.7017 15.7567 15.7017 15.72Z" fill="#FACD66"/>
<path d="M24.8683 11.8333H21.6875V15.83H24.8683V11.8333Z" fill="#FACD66"/>
<path d="M26.2341 15.83H30.0475C29.6625 13.74 28.315 12.3742 26.2433 11.9708V15.8025C26.2433 15.8117 26.2341 15.8208 26.2341 15.83Z" fill="#FACD66"/>
<path d="M26.2433 30.0292C28.2508 29.635 29.5708 28.3517 30.0016 26.3717H26.2433V30.0292Z" fill="#FACD66"/>
<path d="M24.8683 26.3717H21.6875V30.1667H24.8683V26.3717Z" fill="#FACD66"/>
<path d="M21.6875 24.9967H30.1575C30.1667 24.9508 30.1667 24.8958 30.1667 24.8408V17.205H21.6875V24.9967Z" fill="#FACD66"/>
<path d="M20.3125 26.3717H17.0767V30.1667H20.3125V26.3717Z" fill="#FACD66"/>
<path d="M11.9983 26.3717C12.4291 28.3333 13.7308 29.6167 15.7016 30.02V26.3717H11.9983Z" fill="#FACD66"/>
</g>
<defs>
<filter id="filter0_d_359_464" x="-1" y="-1" width="44" height="44" filterUnits="userSpaceOnUse" color-interpolation-filters="sRGB">
<feFlood flood-opacity="0" result="BackgroundImageFix"/>
<feColorMatrix in="SourceAlpha" type="matrix" values="0 0 0 0 0 0 0 0 0 0 0 0 0 0 0 0 0 0 127 0" result="hardAlpha"/>
<feOffset/>
<feGaussianBlur stdDeviation="5.5"/>
<feComposite in2="hardAlpha" operator="out"/>
<feColorMatrix type="matrix" values="0 0 0 0 0.980392 0 0 0 0 0.803921 0 0 0 0 0.4 0 0 0 0.25 0"/>
<feBlend mode="normal" in2="BackgroundImageFix" result="effect1_dropShadow_359_464"/>
<feBlend mode="normal" in="SourceGraphic" in2="effect1_dropShadow_359_464" result="shape"/>
</filter>
</defs>
</svg>
